<?xml version="1.0" encoding="UTF-8" standalone="no"?>
<!-- Created with Inkscape (http://www.inkscape.org/) -->

<svg
   version="1.1"
   id="svg2"
   xml:space="preserve"
   width="696.66669"
   height="611.17468"
   viewBox="0 0 696.66669 611.17468"
   sodipodi:docname="bipolarGaussian.svg"
   inkscape:version="1.1.1 (3bf5ae0d25, 2021-09-20)"
   xmlns:inkscape="http://www.inkscape.org/namespaces/inkscape"
   xmlns:sodipodi="http://sodipodi.sourceforge.net/DTD/sodipodi-0.dtd"
   xmlns="http://www.w3.org/2000/svg"
   xmlns:svg="http://www.w3.org/2000/svg"><defs
     id="defs6"><inkscape:path-effect
       effect="spiro"
       id="path-effect14493"
       is_visible="true"
       lpeversion="1" /><inkscape:path-effect
       effect="spiro"
       id="path-effect13961"
       is_visible="true"
       lpeversion="1" /><inkscape:path-effect
       effect="spiro"
       id="path-effect13745"
       is_visible="true"
       lpeversion="1" /><inkscape:path-effect
       effect="spiro"
       id="path-effect11720"
       is_visible="true"
       lpeversion="1" /><inkscape:path-effect
       effect="spiro"
       id="path-effect8040"
       is_visible="true"
       lpeversion="1" /><marker
       style="overflow:visible"
       id="TriangleInL"
       refX="0.0"
       refY="0.0"
       orient="auto"
       inkscape:stockid="TriangleInL"
       inkscape:isstock="true"><path
         transform="scale(-0.8)"
         style="fill-rule:evenodd;fill:context-stroke;stroke:context-stroke;stroke-width:1.0pt"
         d="M 5.77,0.0 L -2.88,5.0 L -2.88,-5.0 L 5.77,0.0 z "
         id="path7749" /></marker><marker
       style="overflow:visible"
       id="TriangleOutL"
       refX="0.0"
       refY="0.0"
       orient="auto"
       inkscape:stockid="TriangleOutL"
       inkscape:isstock="true"><path
         transform="scale(0.8)"
         style="fill-rule:evenodd;fill:context-stroke;stroke:context-stroke;stroke-width:1.0pt"
         d="M 5.77,0.0 L -2.88,5.0 L -2.88,-5.0 L 5.77,0.0 z "
         id="path7758" /></marker><marker
       style="overflow:visible"
       id="TriangleOutL-2"
       refX="0"
       refY="0"
       orient="auto"
       inkscape:stockid="TriangleOutL"
       inkscape:isstock="true"><path
         transform="scale(0.8)"
         style="fill:context-stroke;fill-rule:evenodd;stroke:context-stroke;stroke-width:1pt"
         d="M 5.77,0 -2.88,5 V -5 Z"
         id="path7758-1" /></marker><marker
       style="overflow:visible"
       id="TriangleInL-5"
       refX="0"
       refY="0"
       orient="auto"
       inkscape:stockid="TriangleInL"
       inkscape:isstock="true"><path
         transform="scale(-0.8)"
         style="fill:context-stroke;fill-rule:evenodd;stroke:context-stroke;stroke-width:1pt"
         d="M 5.77,0 -2.88,5 V -5 Z"
         id="path7749-7" /></marker></defs><sodipodi:namedview
     id="namedview4"
     pagecolor="#ffffff"
     bordercolor="#666666"
     borderopacity="1.0"
     inkscape:pageshadow="2"
     inkscape:pageopacity="0.0"
     inkscape:pagecheckerboard="0"
     showgrid="false"
     inkscape:zoom="1.2801369"
     inkscape:cx="333.16748"
     inkscape:cy="280.04817"
     inkscape:window-width="1920"
     inkscape:window-height="1009"
     inkscape:window-x="-8"
     inkscape:window-y="-8"
     inkscape:window-maximized="1"
     inkscape:current-layer="g10" /><g
     id="g8"
     inkscape:groupmode="layer"
     inkscape:label="bipolarGaussian"
     transform="matrix(1.3333333,0,0,1.3333333,0,1.26127e-5)"><g
       id="g10"><g
         id="g12"><path
           d="m 0.25,245.266 h 522"
           style="fill:none;stroke:#262626;stroke-width:0.5;stroke-linecap:square;stroke-linejoin:round;stroke-miterlimit:10;stroke-dasharray:none;stroke-opacity:1"
           id="path14" /></g><g
         id="g16"><path
           d="m 65.5,245.266 v -5.219"
           style="fill:none;stroke:#262626;stroke-width:0.5;stroke-linecap:square;stroke-linejoin:round;stroke-miterlimit:10;stroke-dasharray:none;stroke-opacity:1"
           id="path18" /></g><g
         id="g20"><path
           d="m 130.75,245.266 v -5.219"
           style="fill:none;stroke:#262626;stroke-width:0.5;stroke-linecap:square;stroke-linejoin:round;stroke-miterlimit:10;stroke-dasharray:none;stroke-opacity:1"
           id="path22" /></g><g
         id="g24"><path
           d="m 196,245.266 v -5.219"
           style="fill:none;stroke:#262626;stroke-width:0.5;stroke-linecap:square;stroke-linejoin:round;stroke-miterlimit:10;stroke-dasharray:none;stroke-opacity:1"
           id="path26" /></g><g
         id="g28"><path
           d="m 261.25,245.266 v -5.219"
           style="fill:none;stroke:#262626;stroke-width:0.5;stroke-linecap:square;stroke-linejoin:round;stroke-miterlimit:10;stroke-dasharray:none;stroke-opacity:1"
           id="path30" /></g><g
         id="g32"><path
           d="m 326.5,245.266 v -5.219"
           style="fill:none;stroke:#262626;stroke-width:0.5;stroke-linecap:square;stroke-linejoin:round;stroke-miterlimit:10;stroke-dasharray:none;stroke-opacity:1"
           id="path34" /></g><g
         id="g36"><path
           d="m 391.75,245.266 v -5.219"
           style="fill:none;stroke:#262626;stroke-width:0.5;stroke-linecap:square;stroke-linejoin:round;stroke-miterlimit:10;stroke-dasharray:none;stroke-opacity:1"
           id="path38" /></g><g
         id="g40"><path
           d="m 457,245.266 v -5.219"
           style="fill:none;stroke:#262626;stroke-width:0.5;stroke-linecap:square;stroke-linejoin:round;stroke-miterlimit:10;stroke-dasharray:none;stroke-opacity:1"
           id="path42" /></g><g
         id="g44"><path
           d="m 0.188,245.266 h 82.277 l 0.652,-0.004 h 5.871 l 0.653,-0.004 h 2.613 l 0.652,-0.004 h 1.305 l 0.652,-0.004 h 0.653 l 0.652,-0.004 h 0.652 l 1.305,-0.008 h 0.652 l 3.262,-0.019 0.652,-0.008 0.653,-0.004 0.652,-0.008 0.652,-0.004 0.653,-0.007 0.652,-0.012 0.656,-0.008 0.653,-0.008 1.957,-0.035 1.957,-0.047 1.304,-0.039 1.958,-0.07 1.957,-0.094 0.652,-0.035 0.652,-0.039 0.653,-0.043 0.652,-0.047 1.305,-0.102 0.652,-0.058 0.652,-0.063 0.653,-0.07 0.656,-0.07 0.652,-0.078 0.653,-0.086 0.652,-0.09 0.652,-0.098 0.653,-0.105 0.652,-0.114 0.652,-0.125 0.653,-0.129 0.652,-0.14 0.652,-0.149 0.653,-0.16 0.652,-0.172 0.652,-0.183 0.653,-0.196 0.652,-0.207 0.652,-0.222 0.653,-0.239 0.652,-0.253 0.652,-0.27 0.653,-0.285 0.652,-0.305 0.652,-0.324 0.653,-0.344 0.652,-0.363 0.656,-0.387 0.653,-0.41 0.652,-0.43 0.652,-0.457 0.653,-0.484 0.652,-0.512 0.652,-0.539 0.653,-0.57 0.652,-0.598 0.652,-0.633 0.653,-0.664 0.652,-0.699 0.652,-0.734 0.653,-0.77 0.652,-0.808 0.653,-0.848 0.652,-0.891 0.652,-0.929 0.653,-0.973 0.652,-1.016 0.652,-1.062 0.653,-1.109 0.652,-1.161 0.652,-1.203 0.653,-1.258 0.656,-1.304 0.652,-1.36 0.653,-1.414 0.652,-1.465 0.652,-1.519 0.653,-1.578 0.652,-1.633 0.652,-1.688 0.653,-1.75 0.652,-1.804 0.652,-1.863 0.653,-1.926 0.652,-1.981 0.652,-2.043 0.653,-2.097 0.652,-2.161 0.652,-2.218 0.653,-2.278 0.652,-2.336 0.652,-2.394 0.653,-2.449 0.652,-2.508 0.652,-2.563 0.653,-2.613 0.652,-2.668 0.656,-2.719 0.653,-2.769 0.652,-2.817 0.652,-2.863 0.653,-2.906 0.652,-2.949 0.652,-2.989 0.653,-3.023 0.652,-3.059 0.652,-3.089 0.653,-3.118 0.652,-3.144 0.653,-3.168 0.652,-3.184 0.652,-3.199 0.653,-3.211 1.957,-9.668 0.652,-3.219 0.652,-3.211 0.653,-3.199 0.652,-3.179 0.652,-3.161 0.653,-3.136 0.656,-3.102 0.652,-3.07 0.653,-3.031 0.652,-2.985 0.652,-2.941 0.653,-2.883 0.652,-2.828 0.652,-2.766 0.653,-2.695 0.652,-2.629 0.652,-2.551 0.653,-2.472 0.652,-2.387 0.652,-2.301 0.653,-2.207 0.652,-2.113 0.652,-2.012 0.653,-1.91 0.652,-1.801 0.652,-1.691 0.653,-1.582 0.652,-1.465 0.652,-1.344 0.653,-1.223 0.652,-1.101 0.656,-0.977 0.653,-0.847 0.652,-0.723 0.652,-0.59 0.653,-0.457 0.652,-0.324 0.652,-0.195 0.653,-0.059 0.652,0.074 0.652,0.207 0.653,0.34 0.652,0.473 0.652,0.605 0.653,0.738 0.652,0.864 0.653,0.992 0.652,1.121 0.652,1.246 0.653,1.363 0.652,1.489 0.652,1.601 0.653,1.719 0.652,1.832 0.652,1.937 0.653,2.047 0.656,2.145 0.652,2.246 0.653,2.34 0.652,2.43 0.652,2.519 0.653,2.602 0.652,2.679 0.652,2.758 0.653,2.828 0.652,2.895 0.652,2.961 0.653,3.015 0.652,3.071 0.652,3.121 0.653,3.168 0.652,3.211 0.652,3.25 0.653,3.281 0.652,3.312 0.652,3.336 0.653,3.364 0.652,3.379 0.652,3.394 0.653,3.406 0.652,3.414 0.656,3.422 1.305,6.844 0.652,3.418 0.653,3.414 0.652,3.406 0.652,3.395 0.653,3.383 0.652,3.367 0.652,3.351 0.653,3.336 0.652,3.313 0.653,3.297 0.652,3.273 0.652,3.254 0.653,3.231 0.652,3.207 0.652,3.183 0.653,3.16 0.652,3.137 0.652,3.117 0.653,3.09 0.652,3.07 0.652,3.047 0.653,3.031 0.656,3.008 0.652,2.989 0.653,2.972 0.652,2.953 0.652,2.942 0.653,2.926 0.652,2.914 0.652,2.906 0.653,2.894 0.652,2.891 0.652,2.883 2.61,11.515 0.652,2.883 0.652,2.887 0.653,2.898 0.652,2.903 0.652,2.914 0.653,2.93 0.652,2.937 0.652,2.957 0.653,2.973 0.652,2.988 0.656,3.008 0.653,3.027 0.652,3.051 0.652,3.066 0.653,3.094 0.652,3.113 0.652,3.141 0.653,3.16 0.652,3.184 0.652,3.207 0.653,3.23 0.652,3.25 0.652,3.278 0.653,3.293 0.652,3.316 0.653,3.336 0.652,3.351 0.652,3.368 0.653,3.382 0.652,3.395 0.652,3.402 0.653,3.414 0.652,3.418 0.652,3.426 0.653,3.422 0.656,3.418 0.652,3.418 0.653,3.406 0.652,3.395 0.652,3.379 0.653,3.359 0.652,3.34 0.652,3.312 0.653,3.282 0.652,3.25 0.652,3.207 0.653,3.168 0.652,3.121 0.652,3.074 0.653,3.016 0.652,2.957 0.652,2.894 0.653,2.828 0.652,2.758 0.652,2.684 0.653,2.601 0.652,2.516 0.652,2.433 0.653,2.34 0.652,2.246 0.656,2.145 0.653,2.043 0.652,1.941 0.652,1.828 0.653,1.719 0.652,1.606 0.652,1.484 0.653,1.367 0.652,1.242 0.652,1.121 0.653,0.993 0.652,0.867 0.653,0.734 0.652,0.606 0.652,0.472 0.653,0.344 0.652,0.207 0.652,0.074 0.653,-0.062 0.652,-0.192 0.652,-0.328 0.653,-0.457 0.652,-0.59 0.652,-0.718 0.653,-0.848 0.656,-0.977 0.652,-1.101 0.653,-1.223 0.652,-1.347 0.652,-1.465 0.653,-1.578 0.652,-1.692 0.652,-1.804 0.653,-1.911 0.652,-2.011 0.652,-2.11 0.653,-2.211 0.652,-2.297 0.652,-2.39 0.653,-2.469 0.652,-2.555 0.652,-2.625 0.653,-2.699 0.652,-2.765 0.652,-2.825 0.653,-2.886 0.652,-2.938 0.652,-2.984 0.653,-3.032 0.652,-3.07 0.656,-3.105 0.653,-3.133 0.652,-3.16 0.652,-3.184 0.653,-3.195 0.652,-3.211 1.957,-9.668 0.652,-3.219 0.653,-3.211 0.652,-3.199 0.652,-3.187 0.653,-3.165 0.652,-3.144 0.653,-3.117 0.652,-3.09 0.652,-3.059 0.653,-3.027 0.652,-2.988 0.652,-2.946 0.653,-2.906 0.652,-2.863 0.652,-2.817 0.653,-2.769 0.656,-2.719 0.652,-2.668 0.653,-2.617 0.652,-2.559 0.652,-2.507 0.653,-2.45 0.652,-2.394 0.652,-2.336 0.653,-2.277 0.652,-2.219 0.652,-2.16 0.653,-2.102 0.652,-2.039 0.652,-1.984 0.653,-1.922 0.652,-1.864 0.652,-1.808 0.653,-1.746 0.652,-1.692 0.652,-1.629 0.653,-1.578 0.652,-1.519 0.652,-1.469 0.653,-1.41 0.652,-1.359 0.656,-1.309 0.653,-1.254 0.652,-1.207 0.652,-1.156 0.653,-1.11 0.652,-1.062 0.652,-1.016 0.653,-0.976 0.652,-0.93 0.652,-0.887 0.653,-0.847 0.652,-0.809 0.653,-0.773 0.652,-0.735 0.652,-0.699 0.653,-0.664 0.652,-0.629 0.652,-0.602 0.653,-0.566 0.652,-0.539 0.652,-0.512 0.653,-0.484 0.652,-0.457 0.652,-0.434 0.653,-0.41 0.656,-0.383 0.652,-0.367 0.653,-0.34 0.652,-0.324 0.652,-0.305 0.653,-0.289 0.652,-0.265 0.652,-0.254 0.653,-0.238 0.652,-0.223 0.652,-0.211 0.653,-0.195 0.652,-0.184 0.652,-0.168 0.653,-0.16 0.652,-0.152 0.652,-0.137 0.653,-0.133 0.652,-0.121 0.652,-0.113 0.653,-0.106 0.652,-0.097 0.652,-0.09 0.653,-0.086 0.652,-0.078 0.656,-0.075 0.653,-0.066 0.652,-0.063 0.652,-0.058 0.653,-0.055 0.652,-0.051 1.305,-0.086 0.652,-0.039 1.305,-0.07 0.652,-0.031 1.305,-0.055 0.652,-0.023 1.957,-0.059 1.957,-0.047 2.61,-0.047 0.656,-0.007 1.957,-0.024 0.652,-0.004 0.653,-0.008 4.566,-0.027 h 0.652 l 1.305,-0.008 h 0.652 l 0.653,-0.004 h 1.304 l 0.653,-0.004 h 1.957 l 0.652,-0.003 h 3.266 l 0.652,-0.004 h 86.191"
           style="fill:none;stroke:#0072bd;stroke-width:1.50000004;stroke-linecap:butt;stroke-linejoin:round;stroke-miterlimit:10;stroke-dasharray:none;stroke-opacity:1"
           id="path46" /></g><g
         id="g48"
         transform="matrix(1,0,0,-1,-52.198785,0)"><path
           d="M 314.102,-457.758 V -30.594"
           style="fill:none;stroke:#000000;stroke-width:0.30000001;stroke-linecap:butt;stroke-linejoin:miter;stroke-miterlimit:4;stroke-dasharray:none;stroke-opacity:1"
           id="path50" /></g><g
         id="g52"
         transform="matrix(0.99397113,0,0,-1,3.5335373,0)"><path
           d="M 207.32,-18.133 H 312.789"
           style="fill:none;stroke:#000000;stroke-width:0.756164;stroke-linecap:butt;stroke-linejoin:miter;stroke-miterlimit:4;stroke-dasharray:none;stroke-opacity:1"
           id="path54" /></g><g
         id="g56"
         transform="matrix(1,0,0,-1,-1.2083669,0)"><path
           d="m 210.812,-18.133 -5.234,3.024 v -6.051 z"
           style="fill:#000000;fill-opacity:1;fill-rule:evenodd;stroke:#000000;stroke-width:0.806575;stroke-linecap:butt;stroke-linejoin:miter;stroke-miterlimit:4;stroke-dasharray:none;stroke-opacity:1"
           id="path58" /></g><g
         id="g60"
         transform="matrix(-1,0,0,1,4.6503816,0)"><path
           d="m -309.297,18.133 -5.234,3.027 v -6.051 z"
           style="fill:#000000;fill-opacity:1;fill-rule:evenodd;stroke:#000000;stroke-width:0.806575;stroke-linecap:butt;stroke-linejoin:miter;stroke-miterlimit:4;stroke-dasharray:none;stroke-opacity:1"
           id="path62" /></g><text
         xml:space="preserve"
         style="font-size:12px;line-height:1.25;font-family:sans-serif;stroke-width:0.75"
         x="252.674"
         y="13.245066"
         id="text1167"><tspan
           sodipodi:role="line"
           id="tspan1165"
           style="stroke-width:0.75"
           x="252.674"
           y="13.245066">$\delta$</tspan></text><circle
         style="opacity:0.99;fill:#000000;fill-opacity:0.951724;stroke:#000000;stroke-width:1.66677;stroke-opacity:1"
         id="path5799"
         cx="261.64914"
         cy="244.91249"
         r="3.3926847" /><text
         xml:space="preserve"
         style="font-size:12px;line-height:1.25;font-family:sans-serif;stroke-width:0.75"
         x="267.4061"
         y="233.33327"
         id="text6697"><tspan
           sodipodi:role="line"
           id="tspan6695"
           style="stroke-width:0.75"
           x="267.4061"
           y="233.33327">$t_c$</tspan></text><path
         style="fill:none;stroke:#000000;stroke-width:0.7892px;stroke-linecap:butt;stroke-linejoin:miter;stroke-opacity:1;marker-start:url(#TriangleOutL);marker-end:url(#TriangleInL)"
         d="m 281.70354,351.86956 h 65.29158"
         id="path8038"
         inkscape:path-effect="#path-effect8040"
         inkscape:original-d="m 281.70354,351.86956 h 65.29158" /><path
         style="fill:none;stroke:#000000;stroke-width:0.7892px;stroke-linecap:butt;stroke-linejoin:miter;stroke-opacity:1;marker-start:url(#TriangleOutL-2);marker-end:url(#TriangleInL-5)"
         d="M 65.5,29.99046 V 245.266"
         id="path8038-5"
         inkscape:path-effect="#path-effect11720"
         inkscape:original-d="M 65.5,29.99046 V 245.266"
         sodipodi:nodetypes="cc" /><text
         xml:space="preserve"
         style="font-size:12px;line-height:1.25;font-family:sans-serif;stroke-width:0.75"
         x="317.94626"
         y="343.80801"
         id="text8344"><tspan
           sodipodi:role="line"
           id="tspan8342"
           style="stroke-width:0.75"
           x="317.94626"
           y="343.80801">$2 \sigma$</tspan></text><text
         xml:space="preserve"
         style="font-size:12px;line-height:1.25;font-family:sans-serif;stroke-width:0.75"
         x="79.678963"
         y="147.05457"
         id="text12642"><tspan
           sodipodi:role="line"
           id="tspan12640"
           style="stroke-width:0.75"
           x="79.678963"
           y="147.05457">$a$</tspan></text><path
         style="fill:none;stroke:#000000;stroke-width:0.75000002;stroke-linecap:butt;stroke-linejoin:miter;stroke-opacity:1;stroke-miterlimit:4;stroke-dasharray:2.25000006,2.25000006;stroke-dashoffset:0"
         d="M 209.051,32.711 H 63.274483"
         id="path13743"
         inkscape:path-effect="#path-effect13745"
         inkscape:original-d="M 209.051,32.711 H 63.274483" /><path
         style="fill:none;stroke:#000000;stroke-width:0.75;stroke-linecap:butt;stroke-linejoin:miter;stroke-miterlimit:4;stroke-dasharray:2.25, 2.25;stroke-dashoffset:0;stroke-opacity:1"
         d="M 314.102,457.758 V 20.331135"
         id="path13743-2"
         inkscape:path-effect="#path-effect13961"
         inkscape:original-d="m 314.102,457.758 0,-437.426865"
         sodipodi:nodetypes="cc" /><path
         style="fill:none;stroke:#000000;stroke-width:0.71766;stroke-linecap:butt;stroke-linejoin:miter;stroke-miterlimit:4;stroke-dasharray:2.15298, 2.15298;stroke-dashoffset:0;stroke-opacity:1"
         d="M 209.42055,32.88779 V 18.462555"
         id="path13743-2-4"
         inkscape:path-effect="#path-effect14493"
         inkscape:original-d="m 209.42055,32.88779 0,-14.425235"
         sodipodi:nodetypes="cc" /></g></g></svg>
